<mxfile host="app.diagrams.net" modified="2023-03-20T17:38:42.470Z" agent="5.0 (Macintosh; Intel Mac OS X 10_15_7) AppleWebKit/537.36 (KHTML, like Gecko) Chrome/111.0.0.0 Safari/537.36" etag="OLoQ6dk1ro79_DFRZK6t" version="21.0.8" type="github">
  <diagram name="Page-1" id="kJNti4fZGHZfdIK_VgVA">
    <mxGraphModel dx="867" dy="560" grid="1" gridSize="10" guides="1" tooltips="1" connect="1" arrows="1" fold="1" page="1" pageScale="1" pageWidth="850" pageHeight="1100" math="0" shadow="0">
      <root>
        <mxCell id="0" />
        <mxCell id="1" parent="0" />
        <mxCell id="qr7iuRNXmF8RHVcq-CUx-1" value="Emotional imbalance" style="ellipse;whiteSpace=wrap;html=1;aspect=fixed;fillColor=#dae8fc;strokeColor=#6c8ebf;" parent="1" vertex="1">
          <mxGeometry x="245" y="340" width="80" height="80" as="geometry" />
        </mxCell>
        <mxCell id="qr7iuRNXmF8RHVcq-CUx-2" value="Neurological disease and injury" style="ellipse;whiteSpace=wrap;html=1;aspect=fixed;fillColor=#dae8fc;strokeColor=#6c8ebf;" parent="1" vertex="1">
          <mxGeometry x="525" y="320" width="80" height="80" as="geometry" />
        </mxCell>
        <mxCell id="qr7iuRNXmF8RHVcq-CUx-3" value="Cognitive deficit due to poor physical health" style="ellipse;whiteSpace=wrap;html=1;aspect=fixed;fillColor=#dae8fc;strokeColor=#6c8ebf;" parent="1" vertex="1">
          <mxGeometry x="390" y="270" width="80" height="80" as="geometry" />
        </mxCell>
        <mxCell id="qr7iuRNXmF8RHVcq-CUx-4" value="Well-being" style="ellipse;whiteSpace=wrap;html=1;aspect=fixed;fillColor=#fff2cc;strokeColor=#d6b656;" parent="1" vertex="1">
          <mxGeometry x="555" y="500" width="80" height="80" as="geometry" />
        </mxCell>
        <mxCell id="qr7iuRNXmF8RHVcq-CUx-5" value="Social engagement and support" style="ellipse;whiteSpace=wrap;html=1;aspect=fixed;fillColor=#fff2cc;strokeColor=#d6b656;" parent="1" vertex="1">
          <mxGeometry x="225" y="490" width="80" height="80" as="geometry" />
        </mxCell>
        <mxCell id="qr7iuRNXmF8RHVcq-CUx-6" value="Cognitive benefits of good physical health" style="ellipse;whiteSpace=wrap;html=1;aspect=fixed;fillColor=#fff2cc;strokeColor=#d6b656;" parent="1" vertex="1">
          <mxGeometry x="482.5" y="565" width="80" height="80" as="geometry" />
        </mxCell>
        <mxCell id="qr7iuRNXmF8RHVcq-CUx-7" value="Good brain health habits" style="ellipse;whiteSpace=wrap;html=1;aspect=fixed;fillColor=#fff2cc;strokeColor=#d6b656;" parent="1" vertex="1">
          <mxGeometry x="295" y="570" width="80" height="80" as="geometry" />
        </mxCell>
        <mxCell id="qr7iuRNXmF8RHVcq-CUx-11" value="dementia" style="whiteSpace=wrap;html=1;aspect=fixed;fontSize=9;fillColor=#dae8fc;strokeColor=#6c8ebf;" parent="1" vertex="1">
          <mxGeometry x="635" y="270" width="50" height="50" as="geometry" />
        </mxCell>
        <mxCell id="qr7iuRNXmF8RHVcq-CUx-12" value="cognitive decline" style="whiteSpace=wrap;html=1;aspect=fixed;fontSize=9;fillColor=#dae8fc;strokeColor=#6c8ebf;" parent="1" vertex="1">
          <mxGeometry x="625" y="390" width="50" height="50" as="geometry" />
        </mxCell>
        <mxCell id="qr7iuRNXmF8RHVcq-CUx-13" value="Alzheimer&#39;s" style="whiteSpace=wrap;html=1;aspect=fixed;fontSize=9;fillColor=#dae8fc;strokeColor=#6c8ebf;" parent="1" vertex="1">
          <mxGeometry x="515" y="250" width="50" height="50" as="geometry" />
        </mxCell>
        <mxCell id="qr7iuRNXmF8RHVcq-CUx-14" value="acute brain injury" style="whiteSpace=wrap;html=1;aspect=fixed;fontSize=9;direction=south;fillColor=#dae8fc;strokeColor=#6c8ebf;" parent="1" vertex="1">
          <mxGeometry x="575" y="240" width="50" height="50" as="geometry" />
        </mxCell>
        <mxCell id="qr7iuRNXmF8RHVcq-CUx-15" value="stroke" style="whiteSpace=wrap;html=1;aspect=fixed;fontSize=9;fillColor=#dae8fc;strokeColor=#6c8ebf;" parent="1" vertex="1">
          <mxGeometry x="645" y="330" width="50" height="50" as="geometry" />
        </mxCell>
        <mxCell id="qr7iuRNXmF8RHVcq-CUx-22" value="" style="endArrow=none;html=1;rounded=0;entryX=0.5;entryY=1;entryDx=0;entryDy=0;exitX=0.328;exitY=0.026;exitDx=0;exitDy=0;exitPerimeter=0;" parent="1" source="qr7iuRNXmF8RHVcq-CUx-2" target="qr7iuRNXmF8RHVcq-CUx-13" edge="1">
          <mxGeometry width="50" height="50" relative="1" as="geometry">
            <mxPoint x="565" y="130" as="sourcePoint" />
            <mxPoint x="420" y="290" as="targetPoint" />
          </mxGeometry>
        </mxCell>
        <mxCell id="qr7iuRNXmF8RHVcq-CUx-23" value="" style="endArrow=none;html=1;rounded=0;entryX=1;entryY=0.5;entryDx=0;entryDy=0;" parent="1" source="qr7iuRNXmF8RHVcq-CUx-2" target="qr7iuRNXmF8RHVcq-CUx-14" edge="1">
          <mxGeometry width="50" height="50" relative="1" as="geometry">
            <mxPoint x="624.78" y="143" as="sourcePoint" />
            <mxPoint x="624.78" y="110" as="targetPoint" />
          </mxGeometry>
        </mxCell>
        <mxCell id="qr7iuRNXmF8RHVcq-CUx-24" value="" style="endArrow=none;html=1;rounded=0;entryX=0;entryY=0.5;entryDx=0;entryDy=0;exitX=0.931;exitY=0.244;exitDx=0;exitDy=0;exitPerimeter=0;" parent="1" source="qr7iuRNXmF8RHVcq-CUx-2" target="qr7iuRNXmF8RHVcq-CUx-11" edge="1">
          <mxGeometry width="50" height="50" relative="1" as="geometry">
            <mxPoint x="590" y="160" as="sourcePoint" />
            <mxPoint x="585" y="120" as="targetPoint" />
          </mxGeometry>
        </mxCell>
        <mxCell id="qr7iuRNXmF8RHVcq-CUx-25" value="" style="endArrow=none;html=1;rounded=0;entryX=0;entryY=0.5;entryDx=0;entryDy=0;" parent="1" source="qr7iuRNXmF8RHVcq-CUx-2" target="qr7iuRNXmF8RHVcq-CUx-15" edge="1">
          <mxGeometry width="50" height="50" relative="1" as="geometry">
            <mxPoint x="590" y="180" as="sourcePoint" />
            <mxPoint x="595" y="130" as="targetPoint" />
          </mxGeometry>
        </mxCell>
        <mxCell id="qr7iuRNXmF8RHVcq-CUx-26" value="" style="endArrow=none;html=1;rounded=0;entryX=0;entryY=0.5;entryDx=0;entryDy=0;exitX=0.921;exitY=0.77;exitDx=0;exitDy=0;exitPerimeter=0;" parent="1" source="qr7iuRNXmF8RHVcq-CUx-2" target="qr7iuRNXmF8RHVcq-CUx-12" edge="1">
          <mxGeometry width="50" height="50" relative="1" as="geometry">
            <mxPoint x="605" y="173" as="sourcePoint" />
            <mxPoint x="605" y="140" as="targetPoint" />
          </mxGeometry>
        </mxCell>
        <mxCell id="qr7iuRNXmF8RHVcq-CUx-27" value="chronic and acute conditions" style="whiteSpace=wrap;html=1;aspect=fixed;fontSize=9;fillColor=#dae8fc;strokeColor=#6c8ebf;" parent="1" vertex="1">
          <mxGeometry x="325" y="230" width="50" height="50" as="geometry" />
        </mxCell>
        <mxCell id="qr7iuRNXmF8RHVcq-CUx-28" value="obesity" style="whiteSpace=wrap;html=1;aspect=fixed;fontSize=9;fillColor=#dae8fc;strokeColor=#6c8ebf;" parent="1" vertex="1">
          <mxGeometry x="390" y="200" width="50" height="50" as="geometry" />
        </mxCell>
        <mxCell id="qr7iuRNXmF8RHVcq-CUx-29" value="smoking" style="whiteSpace=wrap;html=1;aspect=fixed;fontSize=9;fillColor=#dae8fc;strokeColor=#6c8ebf;" parent="1" vertex="1">
          <mxGeometry x="455" y="210" width="50" height="50" as="geometry" />
        </mxCell>
        <mxCell id="qr7iuRNXmF8RHVcq-CUx-30" value="" style="endArrow=none;html=1;rounded=0;entryX=0.5;entryY=1;entryDx=0;entryDy=0;exitX=0.003;exitY=0.411;exitDx=0;exitDy=0;exitPerimeter=0;" parent="1" source="qr7iuRNXmF8RHVcq-CUx-3" target="qr7iuRNXmF8RHVcq-CUx-27" edge="1">
          <mxGeometry width="50" height="50" relative="1" as="geometry">
            <mxPoint x="574" y="143" as="sourcePoint" />
            <mxPoint x="575" y="110" as="targetPoint" />
          </mxGeometry>
        </mxCell>
        <mxCell id="qr7iuRNXmF8RHVcq-CUx-31" value="" style="endArrow=none;html=1;rounded=0;entryX=0.5;entryY=1;entryDx=0;entryDy=0;exitX=0.315;exitY=0.037;exitDx=0;exitDy=0;exitPerimeter=0;" parent="1" source="qr7iuRNXmF8RHVcq-CUx-3" target="qr7iuRNXmF8RHVcq-CUx-28" edge="1">
          <mxGeometry width="50" height="50" relative="1" as="geometry">
            <mxPoint x="410" y="60" as="sourcePoint" />
            <mxPoint x="585" y="120" as="targetPoint" />
          </mxGeometry>
        </mxCell>
        <mxCell id="qr7iuRNXmF8RHVcq-CUx-32" value="" style="endArrow=none;html=1;rounded=0;entryX=0.5;entryY=1;entryDx=0;entryDy=0;exitX=0.916;exitY=0.218;exitDx=0;exitDy=0;exitPerimeter=0;" parent="1" source="qr7iuRNXmF8RHVcq-CUx-3" target="qr7iuRNXmF8RHVcq-CUx-29" edge="1">
          <mxGeometry width="50" height="50" relative="1" as="geometry">
            <mxPoint x="430" y="100" as="sourcePoint" />
            <mxPoint x="430" y="70" as="targetPoint" />
          </mxGeometry>
        </mxCell>
        <mxCell id="qr7iuRNXmF8RHVcq-CUx-33" value="anxiety" style="whiteSpace=wrap;html=1;aspect=fixed;fontSize=9;fillColor=#dae8fc;strokeColor=#6c8ebf;" parent="1" vertex="1">
          <mxGeometry x="195" y="430" width="50" height="50" as="geometry" />
        </mxCell>
        <mxCell id="qr7iuRNXmF8RHVcq-CUx-34" value="depression" style="whiteSpace=wrap;html=1;aspect=fixed;fontSize=9;fillColor=#dae8fc;strokeColor=#6c8ebf;" parent="1" vertex="1">
          <mxGeometry x="135" y="400" width="50" height="50" as="geometry" />
        </mxCell>
        <mxCell id="qr7iuRNXmF8RHVcq-CUx-35" value="PTSD" style="whiteSpace=wrap;html=1;aspect=fixed;fontSize=9;fillColor=#dae8fc;strokeColor=#6c8ebf;" parent="1" vertex="1">
          <mxGeometry x="135" y="340" width="50" height="50" as="geometry" />
        </mxCell>
        <mxCell id="qr7iuRNXmF8RHVcq-CUx-36" value="excess stress" style="whiteSpace=wrap;html=1;aspect=fixed;fontSize=9;fillColor=#dae8fc;strokeColor=#6c8ebf;" parent="1" vertex="1">
          <mxGeometry x="195" y="250" width="50" height="50" as="geometry" />
        </mxCell>
        <mxCell id="qr7iuRNXmF8RHVcq-CUx-37" value="sleep disorders" style="whiteSpace=wrap;html=1;aspect=fixed;fontSize=9;fillColor=#dae8fc;strokeColor=#6c8ebf;" parent="1" vertex="1">
          <mxGeometry x="260" y="260" width="50" height="50" as="geometry" />
        </mxCell>
        <mxCell id="qr7iuRNXmF8RHVcq-CUx-38" value="substance abuse" style="whiteSpace=wrap;html=1;aspect=fixed;fontSize=9;fillColor=#dae8fc;strokeColor=#6c8ebf;" parent="1" vertex="1">
          <mxGeometry x="135" y="280" width="50" height="50" as="geometry" />
        </mxCell>
        <mxCell id="qr7iuRNXmF8RHVcq-CUx-39" value="" style="endArrow=none;html=1;rounded=0;entryX=0.5;entryY=1;entryDx=0;entryDy=0;exitX=0.5;exitY=0;exitDx=0;exitDy=0;" parent="1" source="qr7iuRNXmF8RHVcq-CUx-1" target="qr7iuRNXmF8RHVcq-CUx-37" edge="1">
          <mxGeometry width="50" height="50" relative="1" as="geometry">
            <mxPoint x="405" y="108" as="sourcePoint" />
            <mxPoint x="365" y="90" as="targetPoint" />
          </mxGeometry>
        </mxCell>
        <mxCell id="qr7iuRNXmF8RHVcq-CUx-40" value="" style="endArrow=none;html=1;rounded=0;entryX=0.5;entryY=1;entryDx=0;entryDy=0;" parent="1" source="qr7iuRNXmF8RHVcq-CUx-1" target="qr7iuRNXmF8RHVcq-CUx-36" edge="1">
          <mxGeometry width="50" height="50" relative="1" as="geometry">
            <mxPoint x="415" y="118" as="sourcePoint" />
            <mxPoint x="375" y="100" as="targetPoint" />
          </mxGeometry>
        </mxCell>
        <mxCell id="qr7iuRNXmF8RHVcq-CUx-41" value="" style="endArrow=none;html=1;rounded=0;entryX=1;entryY=0.5;entryDx=0;entryDy=0;exitX=0.068;exitY=0.257;exitDx=0;exitDy=0;exitPerimeter=0;" parent="1" source="qr7iuRNXmF8RHVcq-CUx-1" target="qr7iuRNXmF8RHVcq-CUx-38" edge="1">
          <mxGeometry width="50" height="50" relative="1" as="geometry">
            <mxPoint x="250" y="150" as="sourcePoint" />
            <mxPoint x="235" y="100" as="targetPoint" />
          </mxGeometry>
        </mxCell>
        <mxCell id="qr7iuRNXmF8RHVcq-CUx-42" value="" style="endArrow=none;html=1;rounded=0;entryX=1;entryY=0.5;entryDx=0;entryDy=0;" parent="1" source="qr7iuRNXmF8RHVcq-CUx-1" target="qr7iuRNXmF8RHVcq-CUx-35" edge="1">
          <mxGeometry width="50" height="50" relative="1" as="geometry">
            <mxPoint x="250" y="159" as="sourcePoint" />
            <mxPoint x="245" y="110" as="targetPoint" />
          </mxGeometry>
        </mxCell>
        <mxCell id="qr7iuRNXmF8RHVcq-CUx-43" value="" style="endArrow=none;html=1;rounded=0;entryX=1;entryY=0.5;entryDx=0;entryDy=0;exitX=0.023;exitY=0.652;exitDx=0;exitDy=0;exitPerimeter=0;" parent="1" source="qr7iuRNXmF8RHVcq-CUx-1" target="qr7iuRNXmF8RHVcq-CUx-34" edge="1">
          <mxGeometry width="50" height="50" relative="1" as="geometry">
            <mxPoint x="250" y="180" as="sourcePoint" />
            <mxPoint x="200" y="105" as="targetPoint" />
          </mxGeometry>
        </mxCell>
        <mxCell id="qr7iuRNXmF8RHVcq-CUx-44" value="" style="endArrow=none;html=1;rounded=0;entryX=0.5;entryY=0;entryDx=0;entryDy=0;exitX=0;exitY=1;exitDx=0;exitDy=0;" parent="1" source="qr7iuRNXmF8RHVcq-CUx-1" target="qr7iuRNXmF8RHVcq-CUx-33" edge="1">
          <mxGeometry width="50" height="50" relative="1" as="geometry">
            <mxPoint x="276" y="171" as="sourcePoint" />
            <mxPoint x="210" y="115" as="targetPoint" />
          </mxGeometry>
        </mxCell>
        <mxCell id="qr7iuRNXmF8RHVcq-CUx-45" value="Economic impact" style="rhombus;whiteSpace=wrap;html=1;fillColor=#d5e8d4;strokeColor=#82b366;" parent="1" vertex="1">
          <mxGeometry x="370" y="410" width="120" height="120" as="geometry" />
        </mxCell>
        <mxCell id="qr7iuRNXmF8RHVcq-CUx-46" value="social engagement" style="whiteSpace=wrap;html=1;aspect=fixed;fontSize=9;fillColor=#fff2cc;strokeColor=#d6b656;" parent="1" vertex="1">
          <mxGeometry x="145" y="490" width="50" height="50" as="geometry" />
        </mxCell>
        <mxCell id="qr7iuRNXmF8RHVcq-CUx-47" value="social support" style="whiteSpace=wrap;html=1;aspect=fixed;fontSize=9;fillColor=#fff2cc;strokeColor=#d6b656;" parent="1" vertex="1">
          <mxGeometry x="165" y="550" width="50" height="50" as="geometry" />
        </mxCell>
        <mxCell id="qr7iuRNXmF8RHVcq-CUx-48" value="exercise" style="whiteSpace=wrap;html=1;aspect=fixed;fontSize=9;fillColor=#fff2cc;strokeColor=#d6b656;" parent="1" vertex="1">
          <mxGeometry x="497.5" y="680" width="50" height="50" as="geometry" />
        </mxCell>
        <mxCell id="qr7iuRNXmF8RHVcq-CUx-49" value="nutrition" style="whiteSpace=wrap;html=1;aspect=fixed;fontSize=9;fillColor=#fff2cc;strokeColor=#d6b656;" parent="1" vertex="1">
          <mxGeometry x="570" y="660" width="50" height="50" as="geometry" />
        </mxCell>
        <mxCell id="qr7iuRNXmF8RHVcq-CUx-50" value="continuous learning" style="whiteSpace=wrap;html=1;aspect=fixed;fontSize=9;fillColor=#fff2cc;strokeColor=#d6b656;" parent="1" vertex="1">
          <mxGeometry x="225" y="590" width="50" height="50" as="geometry" />
        </mxCell>
        <mxCell id="qr7iuRNXmF8RHVcq-CUx-51" value="eustress" style="whiteSpace=wrap;html=1;aspect=fixed;fontSize=9;fillColor=#fff2cc;strokeColor=#d6b656;" parent="1" vertex="1">
          <mxGeometry x="185" y="650" width="50" height="50" as="geometry" />
        </mxCell>
        <mxCell id="qr7iuRNXmF8RHVcq-CUx-52" value="mindfullness" style="whiteSpace=wrap;html=1;aspect=fixed;fontSize=9;fillColor=#fff2cc;strokeColor=#d6b656;" parent="1" vertex="1">
          <mxGeometry x="245" y="680" width="50" height="50" as="geometry" />
        </mxCell>
        <mxCell id="qr7iuRNXmF8RHVcq-CUx-53" value="optimism" style="whiteSpace=wrap;html=1;aspect=fixed;fontSize=9;fillColor=#fff2cc;strokeColor=#d6b656;" parent="1" vertex="1">
          <mxGeometry x="365" y="700" width="50" height="50" as="geometry" />
        </mxCell>
        <mxCell id="qr7iuRNXmF8RHVcq-CUx-54" value="resilience" style="whiteSpace=wrap;html=1;aspect=fixed;fontSize=9;fillColor=#fff2cc;strokeColor=#d6b656;" parent="1" vertex="1">
          <mxGeometry x="430" y="670" width="50" height="50" as="geometry" />
        </mxCell>
        <mxCell id="qr7iuRNXmF8RHVcq-CUx-55" value="strategic attention" style="whiteSpace=wrap;html=1;aspect=fixed;fontSize=9;fillColor=#fff2cc;strokeColor=#d6b656;" parent="1" vertex="1">
          <mxGeometry x="420" y="610" width="50" height="50" as="geometry" />
        </mxCell>
        <mxCell id="qr7iuRNXmF8RHVcq-CUx-56" value="work-life balance" style="whiteSpace=wrap;html=1;aspect=fixed;fontSize=9;fillColor=#fff2cc;strokeColor=#d6b656;" parent="1" vertex="1">
          <mxGeometry x="305" y="700" width="50" height="50" as="geometry" />
        </mxCell>
        <mxCell id="qr7iuRNXmF8RHVcq-CUx-57" value="eudaimonia" style="whiteSpace=wrap;html=1;aspect=fixed;fontSize=9;fillColor=#fff2cc;strokeColor=#d6b656;" parent="1" vertex="1">
          <mxGeometry x="655" y="460" width="50" height="50" as="geometry" />
        </mxCell>
        <mxCell id="qr7iuRNXmF8RHVcq-CUx-58" value="life satisfaction" style="whiteSpace=wrap;html=1;aspect=fixed;fontSize=9;fillColor=#fff2cc;strokeColor=#d6b656;" parent="1" vertex="1">
          <mxGeometry x="665" y="530" width="50" height="50" as="geometry" />
        </mxCell>
        <mxCell id="qr7iuRNXmF8RHVcq-CUx-59" value="positive affect" style="whiteSpace=wrap;html=1;aspect=fixed;fontSize=9;fillColor=#fff2cc;strokeColor=#d6b656;" parent="1" vertex="1">
          <mxGeometry x="625" y="600" width="50" height="50" as="geometry" />
        </mxCell>
        <mxCell id="qr7iuRNXmF8RHVcq-CUx-60" value="" style="endArrow=none;html=1;rounded=0;entryX=1;entryY=0.5;entryDx=0;entryDy=0;exitX=0.031;exitY=0.313;exitDx=0;exitDy=0;exitPerimeter=0;" parent="1" source="qr7iuRNXmF8RHVcq-CUx-5" target="qr7iuRNXmF8RHVcq-CUx-46" edge="1">
          <mxGeometry width="50" height="50" relative="1" as="geometry">
            <mxPoint x="220" y="305" as="sourcePoint" />
            <mxPoint x="205" y="260" as="targetPoint" />
          </mxGeometry>
        </mxCell>
        <mxCell id="qr7iuRNXmF8RHVcq-CUx-61" value="" style="endArrow=none;html=1;rounded=0;entryX=1;entryY=0.5;entryDx=0;entryDy=0;exitX=0;exitY=1;exitDx=0;exitDy=0;" parent="1" source="qr7iuRNXmF8RHVcq-CUx-5" target="qr7iuRNXmF8RHVcq-CUx-47" edge="1">
          <mxGeometry width="50" height="50" relative="1" as="geometry">
            <mxPoint x="260" y="300" as="sourcePoint" />
            <mxPoint x="230" y="315" as="targetPoint" />
          </mxGeometry>
        </mxCell>
        <mxCell id="qr7iuRNXmF8RHVcq-CUx-62" value="" style="endArrow=none;html=1;rounded=0;entryX=0.5;entryY=0;entryDx=0;entryDy=0;exitX=0.5;exitY=1;exitDx=0;exitDy=0;" parent="1" source="qr7iuRNXmF8RHVcq-CUx-6" target="qr7iuRNXmF8RHVcq-CUx-48" edge="1">
          <mxGeometry width="50" height="50" relative="1" as="geometry">
            <mxPoint x="270" y="310" as="sourcePoint" />
            <mxPoint x="240" y="325" as="targetPoint" />
          </mxGeometry>
        </mxCell>
        <mxCell id="qr7iuRNXmF8RHVcq-CUx-63" value="" style="endArrow=none;html=1;rounded=0;entryX=0.5;entryY=0;entryDx=0;entryDy=0;" parent="1" source="qr7iuRNXmF8RHVcq-CUx-6" target="qr7iuRNXmF8RHVcq-CUx-49" edge="1">
          <mxGeometry width="50" height="50" relative="1" as="geometry">
            <mxPoint x="343" y="415" as="sourcePoint" />
            <mxPoint x="310" y="435" as="targetPoint" />
          </mxGeometry>
        </mxCell>
        <mxCell id="qr7iuRNXmF8RHVcq-CUx-64" value="" style="endArrow=none;html=1;rounded=0;exitX=0;exitY=0.5;exitDx=0;exitDy=0;" parent="1" source="qr7iuRNXmF8RHVcq-CUx-7" target="qr7iuRNXmF8RHVcq-CUx-50" edge="1">
          <mxGeometry width="50" height="50" relative="1" as="geometry">
            <mxPoint x="353" y="425" as="sourcePoint" />
            <mxPoint x="320" y="445" as="targetPoint" />
          </mxGeometry>
        </mxCell>
        <mxCell id="qr7iuRNXmF8RHVcq-CUx-65" value="" style="endArrow=none;html=1;rounded=0;entryX=1;entryY=0.5;entryDx=0;entryDy=0;exitX=0.071;exitY=0.77;exitDx=0;exitDy=0;exitPerimeter=0;" parent="1" source="qr7iuRNXmF8RHVcq-CUx-7" target="qr7iuRNXmF8RHVcq-CUx-51" edge="1">
          <mxGeometry width="50" height="50" relative="1" as="geometry">
            <mxPoint x="480" y="440" as="sourcePoint" />
            <mxPoint x="330" y="455" as="targetPoint" />
          </mxGeometry>
        </mxCell>
        <mxCell id="qr7iuRNXmF8RHVcq-CUx-66" value="" style="endArrow=none;html=1;rounded=0;entryX=0.5;entryY=0;entryDx=0;entryDy=0;exitX=0.22;exitY=0.911;exitDx=0;exitDy=0;exitPerimeter=0;" parent="1" source="qr7iuRNXmF8RHVcq-CUx-7" target="qr7iuRNXmF8RHVcq-CUx-52" edge="1">
          <mxGeometry width="50" height="50" relative="1" as="geometry">
            <mxPoint x="489" y="434" as="sourcePoint" />
            <mxPoint x="480" y="515" as="targetPoint" />
          </mxGeometry>
        </mxCell>
        <mxCell id="qr7iuRNXmF8RHVcq-CUx-67" value="" style="endArrow=none;html=1;rounded=0;entryX=0.5;entryY=0;entryDx=0;entryDy=0;exitX=0.427;exitY=0.99;exitDx=0;exitDy=0;exitPerimeter=0;" parent="1" source="qr7iuRNXmF8RHVcq-CUx-7" target="qr7iuRNXmF8RHVcq-CUx-56" edge="1">
          <mxGeometry width="50" height="50" relative="1" as="geometry">
            <mxPoint x="510" y="440" as="sourcePoint" />
            <mxPoint x="520" y="520" as="targetPoint" />
          </mxGeometry>
        </mxCell>
        <mxCell id="qr7iuRNXmF8RHVcq-CUx-68" value="" style="endArrow=none;html=1;rounded=0;entryX=0.5;entryY=0;entryDx=0;entryDy=0;exitX=0.656;exitY=0.967;exitDx=0;exitDy=0;exitPerimeter=0;" parent="1" source="qr7iuRNXmF8RHVcq-CUx-7" target="qr7iuRNXmF8RHVcq-CUx-53" edge="1">
          <mxGeometry width="50" height="50" relative="1" as="geometry">
            <mxPoint x="527" y="437" as="sourcePoint" />
            <mxPoint x="585" y="510" as="targetPoint" />
          </mxGeometry>
        </mxCell>
        <mxCell id="qr7iuRNXmF8RHVcq-CUx-69" value="" style="endArrow=none;html=1;rounded=0;entryX=0;entryY=0.5;entryDx=0;entryDy=0;exitX=1;exitY=1;exitDx=0;exitDy=0;" parent="1" source="qr7iuRNXmF8RHVcq-CUx-7" target="qr7iuRNXmF8RHVcq-CUx-54" edge="1">
          <mxGeometry width="50" height="50" relative="1" as="geometry">
            <mxPoint x="538" y="428" as="sourcePoint" />
            <mxPoint x="620" y="495" as="targetPoint" />
          </mxGeometry>
        </mxCell>
        <mxCell id="qr7iuRNXmF8RHVcq-CUx-70" value="" style="endArrow=none;html=1;rounded=0;entryX=0;entryY=0.5;entryDx=0;entryDy=0;exitX=0.972;exitY=0.662;exitDx=0;exitDy=0;exitPerimeter=0;" parent="1" source="qr7iuRNXmF8RHVcq-CUx-7" target="qr7iuRNXmF8RHVcq-CUx-55" edge="1">
          <mxGeometry width="50" height="50" relative="1" as="geometry">
            <mxPoint x="370" y="385" as="sourcePoint" />
            <mxPoint x="630" y="445" as="targetPoint" />
          </mxGeometry>
        </mxCell>
        <mxCell id="qr7iuRNXmF8RHVcq-CUx-71" value="" style="endArrow=none;html=1;rounded=0;entryX=0;entryY=0.5;entryDx=0;entryDy=0;exitX=0.75;exitY=0.069;exitDx=0;exitDy=0;exitPerimeter=0;" parent="1" source="qr7iuRNXmF8RHVcq-CUx-4" target="qr7iuRNXmF8RHVcq-CUx-57" edge="1">
          <mxGeometry width="50" height="50" relative="1" as="geometry">
            <mxPoint x="555" y="430" as="sourcePoint" />
            <mxPoint x="640" y="455" as="targetPoint" />
          </mxGeometry>
        </mxCell>
        <mxCell id="qr7iuRNXmF8RHVcq-CUx-72" value="" style="endArrow=none;html=1;rounded=0;entryX=0;entryY=0.5;entryDx=0;entryDy=0;exitX=0.986;exitY=0.611;exitDx=0;exitDy=0;exitPerimeter=0;" parent="1" source="qr7iuRNXmF8RHVcq-CUx-4" target="qr7iuRNXmF8RHVcq-CUx-58" edge="1">
          <mxGeometry width="50" height="50" relative="1" as="geometry">
            <mxPoint x="630" y="340" as="sourcePoint" />
            <mxPoint x="670" y="310" as="targetPoint" />
          </mxGeometry>
        </mxCell>
        <mxCell id="qr7iuRNXmF8RHVcq-CUx-73" value="" style="endArrow=none;html=1;rounded=0;exitX=1;exitY=1;exitDx=0;exitDy=0;entryX=0.5;entryY=0;entryDx=0;entryDy=0;" parent="1" source="qr7iuRNXmF8RHVcq-CUx-4" target="qr7iuRNXmF8RHVcq-CUx-59" edge="1">
          <mxGeometry width="50" height="50" relative="1" as="geometry">
            <mxPoint x="598" y="312" as="sourcePoint" />
            <mxPoint x="690" y="325" as="targetPoint" />
          </mxGeometry>
        </mxCell>
        <mxCell id="qr7iuRNXmF8RHVcq-CUx-76" value="" style="endArrow=classic;html=1;rounded=0;exitX=0.5;exitY=1;exitDx=0;exitDy=0;entryX=0.5;entryY=0;entryDx=0;entryDy=0;" parent="1" source="qr7iuRNXmF8RHVcq-CUx-3" target="qr7iuRNXmF8RHVcq-CUx-45" edge="1">
          <mxGeometry width="50" height="50" relative="1" as="geometry">
            <mxPoint x="400" y="260" as="sourcePoint" />
            <mxPoint x="450" y="210" as="targetPoint" />
          </mxGeometry>
        </mxCell>
        <mxCell id="qr7iuRNXmF8RHVcq-CUx-77" value="" style="endArrow=classic;html=1;rounded=0;exitX=0.042;exitY=0.68;exitDx=0;exitDy=0;exitPerimeter=0;" parent="1" source="qr7iuRNXmF8RHVcq-CUx-2" target="qr7iuRNXmF8RHVcq-CUx-45" edge="1">
          <mxGeometry width="50" height="50" relative="1" as="geometry">
            <mxPoint x="435" y="130" as="sourcePoint" />
            <mxPoint x="435" y="210" as="targetPoint" />
          </mxGeometry>
        </mxCell>
        <mxCell id="qr7iuRNXmF8RHVcq-CUx-78" value="" style="endArrow=classic;html=1;rounded=0;exitX=0.061;exitY=0.258;exitDx=0;exitDy=0;exitPerimeter=0;" parent="1" source="qr7iuRNXmF8RHVcq-CUx-4" target="qr7iuRNXmF8RHVcq-CUx-45" edge="1">
          <mxGeometry width="50" height="50" relative="1" as="geometry">
            <mxPoint x="563" y="174" as="sourcePoint" />
            <mxPoint x="469" y="244" as="targetPoint" />
          </mxGeometry>
        </mxCell>
        <mxCell id="qr7iuRNXmF8RHVcq-CUx-79" value="" style="endArrow=classic;html=1;rounded=0;entryX=0;entryY=1;entryDx=0;entryDy=0;exitX=0.663;exitY=0.023;exitDx=0;exitDy=0;exitPerimeter=0;" parent="1" source="qr7iuRNXmF8RHVcq-CUx-7" target="qr7iuRNXmF8RHVcq-CUx-45" edge="1">
          <mxGeometry width="50" height="50" relative="1" as="geometry">
            <mxPoint x="360" y="360" as="sourcePoint" />
            <mxPoint x="481" y="284" as="targetPoint" />
          </mxGeometry>
        </mxCell>
        <mxCell id="qr7iuRNXmF8RHVcq-CUx-80" value="" style="endArrow=classic;html=1;rounded=0;" parent="1" source="qr7iuRNXmF8RHVcq-CUx-6" target="qr7iuRNXmF8RHVcq-CUx-45" edge="1">
          <mxGeometry width="50" height="50" relative="1" as="geometry">
            <mxPoint x="510" y="420" as="sourcePoint" />
            <mxPoint x="455" y="308" as="targetPoint" />
          </mxGeometry>
        </mxCell>
        <mxCell id="qr7iuRNXmF8RHVcq-CUx-81" value="" style="endArrow=classic;html=1;rounded=0;entryX=0.045;entryY=0.53;entryDx=0;entryDy=0;entryPerimeter=0;exitX=0.946;exitY=0.26;exitDx=0;exitDy=0;exitPerimeter=0;" parent="1" source="qr7iuRNXmF8RHVcq-CUx-5" target="qr7iuRNXmF8RHVcq-CUx-45" edge="1">
          <mxGeometry width="50" height="50" relative="1" as="geometry">
            <mxPoint x="300" y="300" as="sourcePoint" />
            <mxPoint x="416" y="311" as="targetPoint" />
          </mxGeometry>
        </mxCell>
        <mxCell id="qr7iuRNXmF8RHVcq-CUx-82" value="" style="endArrow=classic;html=1;rounded=0;entryX=0;entryY=0;entryDx=0;entryDy=0;" parent="1" source="qr7iuRNXmF8RHVcq-CUx-1" target="qr7iuRNXmF8RHVcq-CUx-45" edge="1">
          <mxGeometry width="50" height="50" relative="1" as="geometry">
            <mxPoint x="306" y="311" as="sourcePoint" />
            <mxPoint x="380" y="274" as="targetPoint" />
          </mxGeometry>
        </mxCell>
        <mxCell id="tC7V-89haxeQrOxIM_ar-3" value="" style="verticalLabelPosition=bottom;verticalAlign=top;html=1;shape=mxgraph.basic.star;fillColor=#f8cecc;strokeColor=#b85450;" vertex="1" parent="1">
          <mxGeometry x="235" y="720" width="20" height="18" as="geometry" />
        </mxCell>
        <mxCell id="tC7V-89haxeQrOxIM_ar-4" value="" style="verticalLabelPosition=bottom;verticalAlign=top;html=1;shape=mxgraph.basic.star;fillColor=#f8cecc;strokeColor=#b85450;" vertex="1" parent="1">
          <mxGeometry x="125" y="440" width="20" height="18" as="geometry" />
        </mxCell>
        <mxCell id="tC7V-89haxeQrOxIM_ar-5" value="" style="verticalLabelPosition=bottom;verticalAlign=top;html=1;shape=mxgraph.basic.star;fillColor=#f8cecc;strokeColor=#b85450;" vertex="1" parent="1">
          <mxGeometry x="445" y="200" width="20" height="18" as="geometry" />
        </mxCell>
        <mxCell id="tC7V-89haxeQrOxIM_ar-6" value="" style="verticalLabelPosition=bottom;verticalAlign=top;html=1;shape=mxgraph.basic.star;fillColor=#f8cecc;strokeColor=#b85450;" vertex="1" parent="1">
          <mxGeometry x="505" y="240" width="20" height="18" as="geometry" />
        </mxCell>
        <mxCell id="tC7V-89haxeQrOxIM_ar-7" value="" style="verticalLabelPosition=bottom;verticalAlign=top;html=1;shape=mxgraph.basic.star;fillColor=#f8cecc;strokeColor=#b85450;" vertex="1" parent="1">
          <mxGeometry x="685" y="322" width="20" height="18" as="geometry" />
        </mxCell>
      </root>
    </mxGraphModel>
  </diagram>
</mxfile>
